<svg width="182" height="24" viewBox="0 0 182 24" fill="none" xmlns="http://www.w3.org/2000/svg">
<g clip-path="url(#clip0_4173_69)">
<path d="M45.038 23.9911L36.6576 9.96649V22.5266L31.6208 14.0988V0H36.6224H36.7352L45.6019 15.5499L45.5887 0H50.4234L50.7207 0.0118702L54.6605 7.28532L64.6388 23.9941H59.0059L50.6504 10.4576V23.9941" fill="#FF336D"/>
<path d="M78.5745 23.9941H72.9153L64.5055 9.82553V19.2846H69.3826L72.0453 23.9941H65.3887L59.4556 14.0291V0H64.5509L78.5745 23.9941Z" fill="#FF336D"/>
<path d="M30.9134 23.9941L22.6662 9.99913V19.4582H27.4335L30.0625 24H17.6163V0H22.6311L36.6151 23.9941H30.9134Z" fill="#FF336D"/>
<path d="M11.8237 0H16.8722V23.9941H11.8223V20.4078L0 0.0103864L5.70023 0.00296754L11.8223 10.5986L11.8237 0Z" fill="#FF336D"/>
<path d="M84.2528 0H65.4062L68.375 4.84451L79.4445 4.92315L79.3493 23.9941H84.222L84.2528 0Z" fill="#FF336D"/>
<path d="M98.2588 23.9941L90.1009 9.73205V19.1911H94.8682L97.4972 23.9941H85.051V0H90.0526L104 23.9941H98.2588Z" fill="#FF336D"/>
</g>
<path d="M115.067 0.75H115.662V4.53C115.662 5.937 114.822 6.042 113.583 6.042C112.435 6.042 111.504 6.014 111.504 4.53V0.75H112.099V4.53C112.099 5.384 112.302 5.517 113.583 5.517C114.64 5.517 115.067 5.51 115.067 4.53V0.75ZM121.796 0.75V6H120.823L117.876 1.24H117.862V6H117.267V0.75H118.247L121.187 5.545H121.201V0.75H121.796ZM124.003 0.75V6H123.408V0.75H124.003ZM129.032 0.75H129.669L127.807 6H126.96L125.084 0.75H125.721L127.373 5.545H127.394L129.032 0.75ZM131.136 1.275V3.06H133.796V3.55H131.136V5.475H133.915V6H130.541V0.75H133.915V1.275H131.136ZM135.879 3.9V6H135.284V0.75H137.706C138.84 0.75 139.337 1.065 139.337 2.262C139.337 2.997 139.253 3.543 138.42 3.648V3.662C139.008 3.704 139.267 4.04 139.267 4.607V6H138.672V4.887C138.672 4.222 138.511 3.9 137.79 3.9H135.879ZM135.879 3.375H137.713C138.63 3.347 138.742 3.067 138.742 2.199C138.742 1.527 138.651 1.275 137.713 1.275H135.879V3.375ZM142.517 3.578C141.481 3.494 140.592 3.62 140.592 2.234C140.592 0.834 141.236 0.708 142.531 0.708C143.665 0.708 144.484 0.757 144.421 2.185H143.826C143.798 1.268 143.623 1.233 142.51 1.233C141.348 1.233 141.187 1.38 141.187 2.108C141.187 3.109 141.663 3.025 142.643 3.053C143.889 3.123 144.519 3.088 144.519 4.509C144.519 5.993 143.819 6.042 142.496 6.042C141.159 6.042 140.466 5.881 140.578 4.362H141.173C141.159 5.517 141.383 5.517 142.496 5.517C143.616 5.517 143.924 5.517 143.924 4.488C143.924 3.487 143.476 3.655 142.517 3.578ZM149.096 4.887H146.443L146.037 6H145.414L147.325 0.75H148.165L150.125 6H149.509L149.096 4.887ZM148.928 4.397L147.759 1.24L146.604 4.397H148.928ZM151.914 0.75V5.475H154.588V6H151.319V0.75H151.914ZM113.324 9.275V14H112.729V9.275H111.028V8.75H115.025V9.275H113.324ZM116.762 11.9V14H116.167V8.75H118.589C119.723 8.75 120.22 9.065 120.22 10.262C120.22 10.997 120.136 11.543 119.303 11.648V11.662C119.891 11.704 120.15 12.04 120.15 12.607V14H119.555V12.887C119.555 12.222 119.394 11.9 118.673 11.9H116.762ZM116.762 11.375H118.596C119.513 11.347 119.625 11.067 119.625 10.199C119.625 9.527 119.534 9.275 118.596 9.275H116.762V11.375ZM124.946 12.887H122.293L121.887 14H121.264L123.175 8.75H124.015L125.975 14H125.359L124.946 12.887ZM124.778 12.397L123.609 9.24L122.454 12.397H124.778ZM127.092 14V8.75H129.647C130.284 8.75 131.446 8.834 131.446 10.773V12.026C131.446 12.544 131.362 14 129.787 14H127.092ZM127.687 13.475H129.647C130.697 13.475 130.837 12.859 130.851 11.921V10.542C130.851 10.248 130.746 9.275 129.745 9.275H127.687V13.475ZM133.514 8.75V14H132.919V8.75H133.514ZM139.642 8.75V14H138.669L135.722 9.24H135.708V14H135.113V8.75H136.093L139.033 13.545H139.047V8.75H139.642ZM143.123 11.375H145.391V12.516C145.391 13.748 144.838 14.042 143.648 14.042H143.074C141.674 14.042 141.058 13.783 141.058 12.159V10.535C141.058 9.114 141.702 8.708 142.598 8.708H143.977C144.768 8.708 145.377 9.03 145.377 9.877V10.283H144.782V9.982C144.782 9.38 144.544 9.233 143.69 9.233H142.955C141.821 9.233 141.653 9.457 141.653 10.605V12.292C141.653 13.293 141.989 13.517 142.969 13.517H143.529C144.572 13.517 144.796 13.391 144.796 12.551V11.9H143.123V11.375ZM112.099 16.75V22H111.504V16.75H112.099ZM118.228 16.75V22H117.255L114.308 17.24H114.294V22H113.699V16.75H114.679L117.619 21.545H117.633V16.75H118.228ZM120.385 17.275V19.109H122.94V19.599H120.385V22H119.79V16.75H123.01V17.275H120.385ZM124.885 19.9V22H124.29V16.75H126.712C127.846 16.75 128.343 17.065 128.343 18.262C128.343 18.997 128.259 19.543 127.426 19.648V19.662C128.014 19.704 128.273 20.04 128.273 20.607V22H127.678V20.887C127.678 20.222 127.517 19.9 126.796 19.9H124.885ZM124.885 19.375H126.719C127.636 19.347 127.748 19.067 127.748 18.199C127.748 17.527 127.657 17.275 126.719 17.275H124.885V19.375ZM133.069 20.887H130.416L130.01 22H129.387L131.298 16.75H132.138L134.098 22H133.482L133.069 20.887ZM132.901 20.397L131.732 17.24L130.577 20.397H132.901ZM136.944 19.578C135.908 19.494 135.019 19.62 135.019 18.234C135.019 16.834 135.663 16.708 136.958 16.708C138.092 16.708 138.911 16.757 138.848 18.185H138.253C138.225 17.268 138.05 17.233 136.937 17.233C135.775 17.233 135.614 17.38 135.614 18.108C135.614 19.109 136.09 19.025 137.07 19.053C138.316 19.123 138.946 19.088 138.946 20.509C138.946 21.993 138.246 22.042 136.923 22.042C135.586 22.042 134.893 21.881 135.005 20.362H135.6C135.586 21.517 135.81 21.517 136.923 21.517C138.043 21.517 138.351 21.517 138.351 20.488C138.351 19.487 137.903 19.655 136.944 19.578ZM142.124 17.275V22H141.529V17.275H139.828V16.75H143.825V17.275H142.124ZM145.561 19.9V22H144.966V16.75H147.388C148.522 16.75 149.019 17.065 149.019 18.262C149.019 18.997 148.935 19.543 148.102 19.648V19.662C148.69 19.704 148.949 20.04 148.949 20.607V22H148.354V20.887C148.354 20.222 148.193 19.9 147.472 19.9H145.561ZM145.561 19.375H147.395C148.312 19.347 148.424 19.067 148.424 18.199C148.424 17.527 148.333 17.275 147.395 17.275H145.561V19.375ZM154.088 16.75H154.683V20.53C154.683 21.937 153.843 22.042 152.604 22.042C151.456 22.042 150.525 22.014 150.525 20.53V16.75H151.12V20.53C151.12 21.384 151.323 21.517 152.604 21.517C153.661 21.517 154.088 21.51 154.088 20.53V16.75ZM158.494 22.042H157.654C156.695 22.042 156.128 21.44 156.128 20.39V18.36C156.128 16.876 157.045 16.708 158.319 16.708H158.809C159.908 16.708 160.244 17.184 160.244 18.22V18.388H159.649V18.241C159.649 17.506 159.495 17.233 158.725 17.233H158.389C157.157 17.233 156.723 17.38 156.723 18.339V19.781C156.723 20.978 156.772 21.517 157.766 21.517H158.473C159.425 21.517 159.719 21.384 159.719 20.635V20.215H160.314V20.705C160.314 21.909 159.544 22.042 158.494 22.042ZM163.422 17.275V22H162.827V17.275H161.126V16.75H165.123V17.275H163.422ZM169.849 16.75H170.444V20.53C170.444 21.937 169.604 22.042 168.365 22.042C167.217 22.042 166.286 22.014 166.286 20.53V16.75H166.881V20.53C166.881 21.384 167.084 21.517 168.365 21.517C169.422 21.517 169.849 21.51 169.849 20.53V16.75ZM172.651 19.9V22H172.056V16.75H174.478C175.612 16.75 176.109 17.065 176.109 18.262C176.109 18.997 176.025 19.543 175.192 19.648V19.662C175.78 19.704 176.039 20.04 176.039 20.607V22H175.444V20.887C175.444 20.222 175.283 19.9 174.562 19.9H172.651ZM172.651 19.375H174.485C175.402 19.347 175.514 19.067 175.514 18.199C175.514 17.527 175.423 17.275 174.485 17.275H172.651V19.375ZM177.993 17.275V19.06H180.653V19.55H177.993V21.475H180.772V22H177.398V16.75H180.772V17.275H177.993Z" fill="#D8CFCD"/>
<defs>
<clipPath id="clip0_4173_69">
<rect width="104" height="24" fill="white"/>
</clipPath>
</defs>
</svg>
